<?xml version="1.0" encoding="UTF-8" standalone="no"?>
<!-- Created with Inkscape (http://www.inkscape.org/) -->

<svg
   width="264.03955mm"
   height="264.18542mm"
   viewBox="0 0 264.03955 264.18542"
   version="1.1"
   id="svg1"
   inkscape:export-filename="deskclean_icon.svg"
   inkscape:export-xdpi="96"
   inkscape:export-ydpi="96"
   xmlns:inkscape="http://www.inkscape.org/namespaces/inkscape"
   xmlns:sodipodi="http://sodipodi.sourceforge.net/DTD/sodipodi-0.dtd"
   xmlns="http://www.w3.org/2000/svg"
   xmlns:svg="http://www.w3.org/2000/svg">
  <sodipodi:namedview
     id="namedview1"
     pagecolor="#ffffff"
     bordercolor="#000000"
     borderopacity="0.25"
     inkscape:showpageshadow="2"
     inkscape:pageopacity="0.0"
     inkscape:pagecheckerboard="0"
     inkscape:deskcolor="#d1d1d1"
     inkscape:document-units="mm" />
  <defs
     id="defs1">
    <linearGradient
       id="swatch12"
       inkscape:swatch="solid">
      <stop
         style="stop-color:#000000;stop-opacity:1;"
         offset="0"
         id="stop12" />
    </linearGradient>
  </defs>
  <g
     inkscape:label="Layer 1"
     inkscape:groupmode="layer"
     id="layer1"
     transform="translate(-26.431897,55.534846)">
    <path
       id="path1"
       style="fill:#f9f9f9;stroke:#000000;stroke-width:2.72282;stroke-linecap:round;stroke-linejoin:round;stroke-opacity:1"
       d="m 232.74652,-54.173437 a 11.7426,11.987756 0 0 0 -11.02414,7.945251 l -0.94412,-0.342098 -102.10023,151.167004 22.28287,8.07186 97.56666,-144.453203 a 11.7426,11.987756 0 0 0 5.96139,-10.400916 11.7426,11.987756 0 0 0 -11.74243,-11.987898 z" />
    <rect
       style="fill:#f9f9f9;stroke:#000000;stroke-width:3.25978;stroke-linecap:round;stroke-linejoin:round;stroke-opacity:1"
       id="rect20"
       width="138.25868"
       height="14.228275"
       x="96.359138"
       y="42.015289"
       transform="matrix(0.92080213,0.39003005,-0.4760683,0.87940831,0,0)" />
    <ellipse
       style="fill:#ffffff;stroke:#000000;stroke-width:3.25234;stroke-linecap:round;stroke-linejoin:round;stroke-opacity:1"
       id="path20"
       cx="230.93663"
       cy="92.810127"
       rx="18.096464"
       ry="16.540958" />
    <ellipse
       style="fill:#ffffff;stroke:#000000;stroke-width:3.25234;stroke-linecap:round;stroke-linejoin:round;stroke-opacity:1"
       id="path21"
       cx="264.71667"
       cy="162.1754"
       rx="24.128618"
       ry="21.876753" />
    <ellipse
       style="fill:#ffffff;stroke:#000000;stroke-width:3.25234;stroke-linecap:round;stroke-linejoin:round;stroke-opacity:1"
       id="path22"
       cx="204.99838"
       cy="178.1828"
       rx="11.461093"
       ry="9.0708485" />
    <rect
       style="fill:#ffffff;fill-opacity:1;stroke:#000000;stroke-width:3.2013;stroke-linecap:round;stroke-linejoin:round;stroke-opacity:1"
       id="rect22"
       width="131.75662"
       height="74.884842"
       x="101.26624"
       y="58.416054"
       transform="matrix(0.92090528,0.38978643,-0.48878867,0.87240222,0,0)" />
    <path
       style="fill:#000000;fill-opacity:1;stroke:#000000;stroke-width:0.954;stroke-linecap:round;stroke-linejoin:round;stroke-opacity:1"
       id="path24"
       d="m 59.67523,171.06682 c -0.0227,-0.97841 -0.02508,-1.95736 -0.02572,-2.93602 0.04541,-1.06177 0.163586,-2.11888 0.445648,-3.14473 0.162229,-0.70752 0.464288,-1.35623 0.778264,-2.00492 0.195823,-0.4293 0.446894,-0.82923 0.615368,-1.27066 0.188373,-0.37667 0.418645,-0.73705 0.716444,-1.03678 0.311888,-0.41672 0.722961,-0.73712 1.027771,-1.15641 0.327922,-0.30966 0.560758,-0.70578 0.872548,-1.02622 0.218043,-0.31005 0.493133,-0.58158 0.683797,-0.90917 0.185722,-0.20409 0.366594,-0.40379 0.525169,-0.62951 0.135705,-0.23441 0.311523,-0.44227 0.443101,-0.6779 0.151471,-0.31382 0.338455,-0.6055 0.519998,-0.90176 0.194527,-0.49632 0.505945,-0.92308 0.793547,-1.36597 0.497416,-0.71199 1.037285,-1.39553 1.572326,-2.08023 0.466063,-0.5827 0.873421,-1.21051 1.324512,-1.80356 0.332864,-0.50394 0.656127,-1.00151 1.065813,-1.44701 0.372626,-0.39399 0.715415,-0.81291 1.04666,-1.24252 0.382741,-0.43586 0.624956,-0.96984 0.86537,-1.49225 0.249518,-0.53643 0.531024,-1.05958 0.746064,-1.61107 0.245025,-0.54759 0.57122,-1.04993 0.890765,-1.55579 0.450117,-0.63503 0.844613,-1.30641 1.230767,-1.98155 0.478015,-0.93516 0.940385,-1.8784 1.423541,-2.81092 0.301106,-0.67678 0.611235,-1.34537 0.949775,-2.00424 0.295375,-0.54533 0.618442,-1.06989 0.90402,-1.62072 0.314788,-0.6635 0.673415,-1.30683 1.031425,-1.94824 0.410451,-0.78649 0.81149,-1.57426 1.222261,-2.36004 0.423106,-0.78386 0.878428,-1.5492 1.302428,-2.33285 0.424383,-0.7468 0.817679,-1.50951 1.150662,-2.30145 0.307983,-0.67319 0.575051,-1.37135 0.950053,-2.01113 0.110482,-0.17247 0.238791,-0.33182 0.38523,-0.47467 0,0 -3.40637,-2.0649 -3.40637,-2.0649 v 0 c -0.146796,0.17915 -0.282424,0.36711 -0.400071,0.56695 -0.368086,0.66254 -0.634137,1.37807 -0.952185,2.06521 -0.324231,0.78125 -0.719561,1.52994 -1.129266,2.26929 -0.42147,0.78658 -0.88356,1.55053 -1.307311,2.33577 -0.40817,0.78217 -0.805085,1.5675 -1.214919,2.34899 -0.367438,0.64049 -0.739862,1.28135 -1.057564,1.94765 -0.291393,0.54872 -0.602924,1.08279 -0.904949,1.62571 -0.334118,0.66177 -0.636833,1.33388 -0.925801,2.01668 -0.472172,0.93001 -0.907968,1.87855 -1.418976,2.78869 -0.396097,0.66346 -0.780375,1.33526 -1.234998,1.96124 -0.338696,0.52531 -0.687202,1.04566 -0.939017,1.62002 -0.20519,0.54575 -0.48577,1.06172 -0.735632,1.58782 -0.227179,0.49641 -0.44945,1.00601 -0.825076,1.41098 -0.327155,0.42018 -0.655476,0.83933 -1.026972,1.22198 -0.403736,0.46422 -0.743538,0.96587 -1.078527,1.48121 -0.435559,0.60034 -0.847243,1.21842 -1.297657,1.80857 -0.541229,0.69503 -1.088554,1.3864 -1.611963,2.0939 -0.294145,0.44233 -0.614161,0.86741 -0.815152,1.36457 -0.188722,0.29803 -0.379418,0.59509 -0.536141,0.91148 -0.12705,0.21978 -0.298397,0.41219 -0.418029,0.63779 -0.177337,0.22707 -0.373401,0.43655 -0.546478,0.66696 -0.175318,0.30355 -0.430763,0.55624 -0.634032,0.8409 -0.300958,0.34949 -0.570198,0.72565 -0.885317,1.06465 -0.301963,0.39778 -0.701415,0.71266 -1.001365,1.11499 -0.323779,0.35067 -0.60084,0.74071 -0.806106,1.17267 -0.151829,0.43522 -0.411092,0.81777 -0.579409,1.24657 -0.32254,0.67248 -0.630446,1.34448 -0.789001,2.07931 -0.295597,1.05924 -0.410366,2.15025 -0.480433,3.24582 -5.29e-4,0.96992 -0.0028,1.94015 -0.02572,2.90981 z" />
    <path
       style="fill:#000000;fill-opacity:1;stroke:#000000;stroke-width:0.954;stroke-linecap:round;stroke-linejoin:round;stroke-opacity:1"
       id="path25"
       d="m 92.625055,183.71422 c -0.03479,-1.01866 -0.02196,-2.0382 -0.0227,-3.05726 -0.05347,-1.09668 0.183737,-2.169 0.374198,-3.24077 0.202245,-1.11905 0.488989,-2.21742 0.821576,-3.30392 0.284334,-0.95185 0.550455,-1.90963 0.851135,-2.85636 0.228391,-0.77933 0.470194,-1.55198 0.712394,-2.32686 0.230089,-0.61227 0.418269,-1.23812 0.671166,-1.84175 0.226554,-0.57528 0.48224,-1.13882 0.786262,-1.67735 0.360873,-0.57562 0.713758,-1.15717 1.047356,-1.74918 0.39498,-0.5166 0.699648,-1.08705 1.020833,-1.64929 0.207847,-0.41206 0.465019,-0.78434 0.599708,-1.22963 0.191283,-0.46205 0.347593,-0.93635 0.548877,-1.3945 0.38243,-0.68611 0.7113,-1.40136 1.1306,-2.06616 0.37868,-0.62885 0.77359,-1.24726 1.15647,-1.8734 0.42118,-0.67273 0.9187,-1.29114 1.33963,-1.96437 0.45854,-0.72764 0.97287,-1.41783 1.45765,-2.12826 0.52267,-0.71135 1.01589,-1.44788 1.60296,-2.10827 0.3871,-0.519 0.81646,-1.00523 1.20509,-1.52244 0.42889,-0.61482 0.82386,-1.24775 1.29073,-1.83606 0.59123,-0.68789 1.15902,-1.39515 1.74779,-2.08529 0.40233,-0.54279 0.85965,-1.03888 1.28052,-1.56668 0.32921,-0.37269 0.56197,-0.80946 0.82906,-1.22397 0.33912,-0.48337 0.53058,-1.02675 0.72449,-1.5777 0.19314,-0.6155 0.40435,-1.21943 0.6742,-1.80506 0.17198,-0.41309 0.38214,-0.80581 0.59069,-1.20158 0.068,-0.16208 0.1643,-0.29206 0.28322,-0.41866 0.18346,-0.24433 0.33117,-0.4821 0.57889,-0.66802 0.0252,-0.0167 0.0503,-0.0334 0.0755,-0.05 0,0 -3.36695,-2.12745 -3.36695,-2.12745 v 0 c -0.0272,0.023 -0.0544,0.0459 -0.0816,0.0689 -0.23668,0.21619 -0.40536,0.47422 -0.6136,0.71311 -0.13688,0.15819 -0.25867,0.31609 -0.32693,0.51681 -0.19392,0.40891 -0.41622,0.80205 -0.57411,1.22698 -0.27065,0.5965 -0.5018,1.20512 -0.68905,1.83358 -0.1935,0.52053 -0.35847,1.04178 -0.69503,1.49486 -0.25469,0.40499 -0.48832,0.82298 -0.79764,1.19187 -0.42172,0.52101 -0.8561,1.03135 -1.25197,1.57274 -0.58521,0.70115 -1.16418,1.40727 -1.76912,2.09125 -0.45437,0.59848 -0.86627,1.22278 -1.29626,1.83767 -0.38834,0.50601 -0.81627,0.98124 -1.18753,1.5011 -0.58551,0.67961 -1.06475,1.44122 -1.60164,2.15893 -0.50415,0.70572 -1.02881,1.39822 -1.48787,2.13461 -0.418552,0.67626 -0.921748,1.29199 -1.344128,1.9655 -0.381831,0.62582 -0.783895,1.23898 -1.150763,1.87411 -0.416478,0.68543 -0.769422,1.40704 -1.168945,2.10251 -0.219684,0.47118 -0.387991,0.96077 -0.593135,1.43783 -0.108808,0.4217 -0.365864,0.76245 -0.547352,1.15345 -0.307816,0.56747 -0.610454,1.13699 -0.997281,1.65675 -0.344688,0.58856 -0.703556,1.16837 -1.067583,1.74499 -0.301122,0.55599 -0.577331,1.12349 -0.796591,1.71733 -0.267134,0.61359 -0.457518,1.25296 -0.696915,1.87722 -0.227436,0.77979 -0.459711,1.5557 -0.677678,2.33838 -0.306649,0.94736 -0.586912,1.90396 -0.854916,2.86289 -0.323668,1.10463 -0.621284,2.21512 -0.838234,3.34651 -0.191577,1.09202 -0.453719,2.182 -0.409628,3.29927 -7.94e-4,1.01135 0.01238,2.0232 -0.0227,3.03414 z" />
    <path
       style="fill:#000000;fill-opacity:1;stroke:#000000;stroke-width:0.954;stroke-linecap:round;stroke-linejoin:round;stroke-opacity:1"
       id="path26"
       d="m 122.24662,197.02729 c -0.0628,-1.25664 -0.0333,-2.5113 0.0476,-3.76586 0.16185,-1.69646 0.55658,-3.36258 0.98564,-5.00864 0.51778,-1.83635 1.03259,-3.67244 1.42037,-5.54121 0.41147,-1.92054 0.87554,-3.82883 1.32441,-5.74072 0.34534,-1.27838 0.72014,-2.54938 1.0921,-3.82086 0.28737,-0.93048 0.60886,-1.84807 0.90798,-2.77457 0.25581,-0.82102 0.59692,-1.61129 0.86019,-2.42994 0.23498,-0.83378 0.53915,-1.64202 0.86478,-2.4436 0.26165,-0.66432 0.62229,-1.27461 0.97716,-1.89051 0.34194,-0.71148 0.69969,-1.41297 1.08927,-2.10003 0.4506,-0.70669 0.95023,-1.38063 1.42665,-2.06993 0.50592,-0.72714 1.03455,-1.43038 1.63871,-2.0785 0.45881,-0.58773 0.97392,-1.1315 1.42024,-1.72841 0.45811,-0.57873 0.8572,-1.20743 1.3443,-1.76189 0.53261,-0.51807 0.96051,-1.12848 1.4418,-1.69063 0.28721,-0.42346 0.65317,-0.79762 0.91196,-1.23914 0.20576,-0.22413 0.37536,-0.46947 0.47715,-0.75737 0.0666,-0.21923 0.21828,-0.38631 0.2991,-0.60735 0.1994,-0.35777 0.3979,-0.71467 0.5486,-1.09622 0.1017,-0.30733 0.2737,-0.58726 0.43045,-0.86977 0.0565,-0.16188 0.12602,-0.25948 0.26129,-0.36157 0.10224,-0.0674 0.0451,-0.039 -0.0631,0.18073 0,0 -3.11411,-2.5005 -3.11411,-2.5005 v 0 c -0.1787,0.18805 -0.10612,0.11889 -0.20997,0.21531 -0.14388,0.1427 -0.27316,0.29553 -0.33082,0.49023 -0.14856,0.3045 -0.33376,0.59602 -0.43288,0.92012 -0.14572,0.39192 -0.36239,0.74342 -0.57301,1.10287 -0.0643,0.22839 -0.26573,0.37902 -0.30421,0.61424 -0.0642,0.27036 -0.26788,0.46543 -0.42501,0.68512 -0.24063,0.42484 -0.58048,0.7901 -0.8515,1.19525 -0.46843,0.57133 -0.91398,1.16348 -1.43664,1.6885 -0.47979,0.57286 -0.89977,1.19456 -1.36339,1.7808 -0.43828,0.58524 -0.93296,1.12744 -1.38791,1.69987 -0.61127,0.6647 -1.13012,1.3966 -1.65815,2.12801 -0.49561,0.69167 -0.99413,1.3819 -1.45367,2.09815 -0.38991,0.68589 -0.74652,1.38763 -1.10143,2.09134 -0.36064,0.63371 -0.71909,1.26598 -0.99158,1.94502 -0.32244,0.81378 -0.63128,1.63063 -0.87628,2.47194 -0.25163,0.82186 -0.60882,1.60515 -0.85326,2.42935 -0.30422,0.93083 -0.60753,1.86114 -0.90035,2.79583 -0.35213,1.28773 -0.72432,2.5696 -1.05999,3.86124 -0.42322,1.92246 -0.85666,3.84277 -1.28747,5.76351 -0.43216,1.85008 -0.9009,3.69185 -1.43445,5.51542 -0.44704,1.66359 -0.8568,3.34273 -1.04542,5.05836 -0.0997,1.24941 -0.12641,2.49591 -0.14197,3.749 z" />
  </g>
</svg>
