<?xml version="1.0" encoding="UTF-8" standalone="no"?>
<!-- Created with Inkscape (http://www.inkscape.org/) -->

<svg
   width="270.82812mm"
   height="270.06635mm"
   viewBox="0 0 270.82812 270.06635"
   version="1.1"
   id="svg1"
   inkscape:export-filename="deskclean_icon.svg"
   inkscape:export-xdpi="96"
   inkscape:export-ydpi="96"
   xmlns:inkscape="http://www.inkscape.org/namespaces/inkscape"
   xmlns:sodipodi="http://sodipodi.sourceforge.net/DTD/sodipodi-0.dtd"
   xmlns:xlink="http://www.w3.org/1999/xlink"
   xmlns="http://www.w3.org/2000/svg"
   xmlns:svg="http://www.w3.org/2000/svg">
  <sodipodi:namedview
     id="namedview1"
     pagecolor="#ffffff"
     bordercolor="#000000"
     borderopacity="0.25"
     inkscape:showpageshadow="2"
     inkscape:pageopacity="0.0"
     inkscape:pagecheckerboard="0"
     inkscape:deskcolor="#d1d1d1"
     inkscape:document-units="mm" />
  <defs
     id="defs1">
    <pattern
       inkscape:collect="always"
       xlink:href="#Strips1_1.5"
       preserveAspectRatio="xMidYMid"
       id="pattern20"
       patternTransform="matrix(2,0,0,2,97.85742,18.101861)" />
    <pattern
       inkscape:collect="always"
       patternUnits="userSpaceOnUse"
       width="2.5"
       height="1"
       patternTransform="translate(0,0) scale(2,2)"
       preserveAspectRatio="xMidYMid"
       id="Strips1_1.5"
       style="fill:#000000"
       inkscape:stockid="Stripes 02 (2:3)"
       inkscape:isstock="true"
       inkscape:label="Stripes 02 (2:3)">
      <rect
   style="stroke:none"
   x="0"
   y="-0.5"
   width="1"
   height="2"
   id="rect140" />

    </pattern>
    <pattern
       inkscape:collect="always"
       xlink:href="#shading5"
       preserveAspectRatio="xMidYMid"
       id="pattern15"
       patternTransform="matrix(0.2,0,0,0.2,97.85742,18.101861)" />
    <pattern
       patternUnits="userSpaceOnUse"
       width="349.7577"
       height="27.6099"
       patternTransform="scale(0.2)"
       preserveAspectRatio="xMidYMid"
       id="shading5"
       style="fill:#000000"
       inkscape:label="Lines shading big"
       inkscape:collect="always"
       inkscape:isstock="true">
      <path
         id="path37"
         style="stroke-width:0.487199;stroke-linecap:square;paint-order:markers fill stroke;stop-color:#000000"
         d="m 349.5257,0 h 0.232 v 27.6099 h -0.232 z m -18.396,0 h 1.0542 v 27.6099 h -1.0542 z m -18.3961,0 h 1.8765 v 27.6099 h -1.8765 z m -18.3961,0 h 2.6988 v 27.6099 h -2.6988 z m -18.3961,0 h 3.5211 v 27.6099 h -3.5211 z m -18.3961,0 h 4.3434 v 27.6099 h -4.3434 z m -18.3961,0 h 5.1658 v 27.6099 h -5.1658 z m -18.3961,0 h 5.9881 v 27.6099 h -5.9881 z M 202.357,0 h 6.8104 v 27.6099 h -6.8104 z m -18.3961,0 h 7.6327 v 27.6099 h -7.6327 z m -18.3961,0 h 8.455 v 27.6099 h -8.455 z m -18.3961,0 h 9.2773 v 27.6099 h -9.2773 z m -18.396,0 h 10.0995 v 27.6099 h -10.0995 z m -18.3961,0 h 10.9218 V 27.6099 H 110.3766 Z M 91.9805,0 h 11.7441 V 27.6099 H 91.9805 Z M 73.5844,0 H 86.1509 V 27.6099 H 73.5844 Z M 55.1883,0 H 68.5771 V 27.6099 H 55.1883 Z M 36.7922,0 H 51.0033 V 27.6099 H 36.7922 Z M 18.3961,0 H 33.4295 V 27.6099 H 18.3961 Z M 0,0 H 15.8557 V 27.6099 H 0 Z"
         sodipodi:nodetypes="cccccccccc" />
    </pattern>
    <linearGradient
       id="swatch12"
       inkscape:swatch="solid">
      <stop
         style="stop-color:#000000;stop-opacity:1;"
         offset="0"
         id="stop12" />
    </linearGradient>
  </defs>
  <g
     inkscape:label="Layer 1"
     inkscape:groupmode="layer"
     id="layer1"
     transform="translate(-19.746205,55.453661)">
    <g
       id="g22"
       transform="matrix(3.624804,0,0,3.206351,-197.34635,-473.31758)">
      <ellipse
         style="fill:#1a1a1a;stroke:#000000;stroke-width:0.798677;stroke-linecap:round;stroke-linejoin:round;stroke-opacity:1"
         id="path1"
         cx="118.65266"
         cy="134.46191"
         rx="3.2395132"
         ry="3.7387533" />
      <rect
         style="fill:#1a1a1a;stroke:#000000;stroke-width:0.94676;stroke-linecap:round;stroke-linejoin:round;stroke-opacity:1"
         id="rect1"
         width="6.6429219"
         height="54.919369"
         x="169.18152"
         y="80.350189"
         transform="matrix(0.92540336,0.37898367,-0.51288189,0.85845918,0,0)" />
      <rect
         style="fill:url(#pattern20);fill-opacity:1;stroke:url(#pattern15);stroke-width:0.954;stroke-linecap:round;stroke-linejoin:round;stroke-opacity:1"
         id="rect12"
         width="37.609398"
         height="23.297857"
         x="140.79204"
         y="127.93462"
         transform="rotate(25.964997)" />
      <rect
         style="fill:#1a1a1a;stroke:#000000;stroke-width:0.954;stroke-linecap:round;stroke-linejoin:round;stroke-opacity:1"
         id="rect20"
         width="38.940701"
         height="4.326745"
         x="139.99889"
         y="122.40404"
         transform="rotate(25.587725)" />
      <ellipse
         style="fill:#1a1a1a;stroke:#000000;stroke-width:0.954;stroke-linecap:round;stroke-linejoin:round;stroke-opacity:1"
         id="path20"
         cx="118.15342"
         cy="176.56448"
         rx="4.9923978"
         ry="5.1588111" />
      <ellipse
         style="fill:#1a1a1a;stroke:#000000;stroke-width:0.954;stroke-linecap:round;stroke-linejoin:round;stroke-opacity:1"
         id="path21"
         cx="127.47256"
         cy="198.1982"
         rx="6.6565304"
         ry="6.8229437" />
      <ellipse
         style="fill:#1a1a1a;stroke:#000000;stroke-width:0.954;stroke-linecap:round;stroke-linejoin:round;stroke-opacity:1"
         id="path22"
         cx="110.99765"
         cy="203.1906"
         rx="3.1618519"
         ry="2.8290255" />
    </g>
  </g>
</svg>
