<?xml version="1.0" encoding="UTF-8" standalone="no"?>
<!-- Created with Inkscape (http://www.inkscape.org/) -->

<svg
   width="3.355665in"
   height="3.5858204in"
   viewBox="0 0 85.23389 91.079839"
   version="1.1"
   id="svg1"
   inkscape:version="1.3.2 (091e20e, 2023-11-25)"
   sodipodi:docname="gopher.svg"
   xmlns:inkscape="http://www.inkscape.org/namespaces/inkscape"
   xmlns:sodipodi="http://sodipodi.sourceforge.net/DTD/sodipodi-0.dtd"
   xmlns:xlink="http://www.w3.org/1999/xlink"
   xmlns="http://www.w3.org/2000/svg"
   xmlns:svg="http://www.w3.org/2000/svg">
  <sodipodi:namedview
     id="namedview1"
     pagecolor="#ffffff"
     bordercolor="#000000"
     borderopacity="0.25"
     inkscape:showpageshadow="2"
     inkscape:pageopacity="0.0"
     inkscape:pagecheckerboard="true"
     inkscape:deskcolor="#d1d1d1"
     inkscape:document-units="mm"
     inkscape:zoom="1.26"
     inkscape:cx="-124.60317"
     inkscape:cy="110.31746"
     inkscape:window-width="3008"
     inkscape:window-height="1639"
     inkscape:window-x="1728"
     inkscape:window-y="25"
     inkscape:window-maximized="1"
     inkscape:current-layer="layer1" />
  <defs
     id="defs1">
    <pattern
       inkscape:collect="always"
       xlink:href="#shading6"
       preserveAspectRatio="xMidYMid"
       id="pattern24"
       patternTransform="scale(0.21)"
       x="0"
       y="0" />
    <pattern
       patternUnits="userSpaceOnUse"
       width="372.6899"
       height="66.1838"
       patternTransform="scale(0.2)"
       preserveAspectRatio="xMidYMid"
       id="shading6"
       style="fill:#000000"
       inkscape:label="Lines shading small"
       inkscape:collect="always"
       inkscape:isstock="true">
      <path
         id="path34"
         style="stroke-width:0.487199;stroke-linecap:square;paint-order:markers fill stroke;stop-color:#000000"
         d="m 371.6961,0 h 0.9938 v 66.1838 h -0.9938 z m -7.9084,0 h 1.1312 v 66.1838 h -1.1312 z m -7.9085,0 h 1.2687 v 66.1838 h -1.2687 z m -7.9084,0 h 1.4062 v 66.1838 h -1.4062 z m -7.9084,0 h 1.5436 v 66.1838 h -1.5436 z m -7.9084,0 h 1.681 v 66.1838 h -1.681 z m -7.9085,0 h 1.8185 v 66.1838 h -1.8185 z m -7.9084,0 h 1.9559 v 66.1838 h -1.9559 z m -7.9084,0 h 2.0934 v 66.1838 h -2.0934 z m -7.9085,0 h 2.2309 v 66.1838 h -2.2309 z m -7.9084,0 h 2.3683 v 66.1838 h -2.3683 z m -7.9084,0 h 2.5057 v 66.1838 h -2.5057 z m -7.9084,0 h 2.6431 v 66.1838 h -2.6431 z m -7.9085,0 h 2.7807 v 66.1838 h -2.7807 z m -7.9084,0 h 2.9181 v 66.1838 h -2.9181 z m -7.9084,0 h 3.0555 v 66.1838 h -3.0555 z m -7.9084,0 h 3.1929 v 66.1838 h -3.1929 z m -7.9085,0 h 3.3304 v 66.1838 h -3.3304 z m -7.9084,0 h 3.4679 v 66.1838 h -3.4679 z m -7.9084,0 h 3.6053 v 66.1838 h -3.6053 z m -7.9085,0 h 3.7428 v 66.1838 h -3.7428 z m -7.9084,0 h 3.8802 v 66.1838 h -3.8802 z m -7.9084,0 h 4.0176 v 66.1838 h -4.0176 z m -7.9084,0 h 4.1551 v 66.1838 h -4.1551 z m -7.9085,0 h 4.2926 v 66.1838 h -4.2926 z m -7.9084,0 h 4.43 v 66.1838 h -4.43 z m -7.9084,0 h 4.5674 v 66.1838 h -4.5674 z m -7.9084,0 h 4.7048 v 66.1838 h -4.7048 z m -7.9085,0 h 4.8424 v 66.1838 h -4.8424 z m -7.9084,0 h 4.9798 v 66.1838 h -4.9798 z m -7.9084,0 h 5.1172 v 66.1838 h -5.1172 z m -7.9084,0 h 5.2546 v 66.1838 h -5.2546 z m -7.9085,0 h 5.3921 v 66.1838 h -5.3921 z m -7.9084,0 h 5.5295 v 66.1838 h -5.5295 z m -7.9084,0 h 5.667 v 66.1838 h -5.667 z m -7.9085,0 h 5.8045 v 66.1838 h -5.8045 z m -7.9084,0 h 5.9419 v 66.1838 h -5.9419 z m -7.9084,0 h 6.0793 v 66.1838 h -6.0793 z m -7.9084,0 h 6.2167 v 66.1838 h -6.2167 z m -7.9085,0 h 6.3543 V 66.1838 H 63.2674 Z M 55.359,0 h 6.4917 V 66.1838 H 55.359 Z m -7.9084,0 h 6.6291 v 66.1838 h -6.6291 z m -7.9084,0 h 6.7665 v 66.1838 h -6.7665 z m -7.9085,0 h 6.904 v 66.1838 h -6.904 z m -7.9084,0 h 7.0415 v 66.1838 h -7.0415 z m -7.9084,0 h 7.1789 V 66.1838 H 15.8169 Z M 7.9084,0 h 7.3164 V 66.1838 H 7.9084 Z M 0,0 H 7.4538 V 66.1838 H 0 Z" />
    </pattern>
  </defs>
  <g
     inkscape:label="Layer 1"
     inkscape:groupmode="layer"
     id="layer1"
     style="display:inline"
     transform="translate(-66.643498,-83.131393)">
    <path
       id="path1"
       style="fill:#5fbcd3;stroke-width:0.26781"
       d="m 103.66029,83.131393 a 28.332617,29.180902 0 0 0 -28.332635,29.181167 28.332617,29.180902 0 0 0 1.024227,7.63726 31.725746,33.931282 0 0 0 -4.417818,17.1328 31.725746,33.931282 0 0 0 31.726226,33.93126 31.725746,33.931282 0 0 0 31.72571,-33.93126 31.725746,33.931282 0 0 0 -4.39818,-17.2253 28.332617,29.180902 0 0 0 1.00511,-7.54476 28.332617,29.180902 0 0 0 -28.33264,-29.181167 z" />
    <ellipse
       style="fill:#ececec;stroke-width:0.264583"
       id="path2"
       cx="93.31102"
       cy="104.50835"
       rx="8.143507"
       ry="9.1614456" />
    <ellipse
       style="fill:#ececec;stroke-width:0.264583"
       id="ellipse2"
       cx="114.68773"
       cy="104.50835"
       rx="8.143507"
       ry="9.1614456" />
    <g
       id="g4">
      <ellipse
         style="fill:#000000;stroke:#000000;stroke-width:0.264583"
         id="path3"
         cx="94.159302"
         cy="103.82971"
         rx="3.5627844"
         ry="3.7324407" />
      <ellipse
         style="fill:#ffffff;stroke:#000000;stroke-width:0.264583"
         id="path4"
         cx="94.925461"
         cy="102.95837"
         rx="1.0775852"
         ry="1.4694344" />
    </g>
    <g
       id="g5"
       transform="matrix(-1,0,0,1,207.12736,0.19592459)">
      <ellipse
         style="fill:#000000;stroke:#000000;stroke-width:0.264583"
         id="ellipse4"
         cx="94.159302"
         cy="103.82971"
         rx="3.5627844"
         ry="3.7324407" />
      <ellipse
         style="fill:#ffffff;stroke:#000000;stroke-width:0.264583"
         id="ellipse5"
         cx="94.925461"
         cy="102.95837"
         rx="1.0775852"
         ry="1.4694344" />
    </g>
    <ellipse
       style="fill:#deaa87;stroke:#d38d5f;stroke-width:0.264583"
       id="path5"
       cx="104.62373"
       cy="118.92622"
       rx="6.6614356"
       ry="4.7021899" />
    <ellipse
       style="fill:#000000;stroke:#000000;stroke-width:0.264583"
       id="path6"
       cx="104.72169"
       cy="116.96698"
       rx="4.2123785"
       ry="2.9388688" />
    <rect
       style="fill:#ffffff;stroke:#ffffff;stroke-width:0.231858"
       id="rect6"
       width="7.08601"
       height="4.3430662"
       x="101.27664"
       y="122.69103" />
    <ellipse
       style="fill:#5fbcd3;stroke:#5fbcd3;stroke-width:0.264583"
       id="path7"
       cx="80.622971"
       cy="91.790665"
       rx="6.3675494"
       ry="4.8001523" />
    <ellipse
       style="fill:#5fbcd3;stroke:#5fbcd3;stroke-width:0.264583"
       id="ellipse7"
       cx="128.6245"
       cy="92.966209"
       rx="6.3675494"
       ry="4.8001523" />
    <ellipse
       style="fill:#2c89a0;stroke:#5fbcd3;stroke-width:0.113569"
       id="ellipse8"
       cx="127.64486"
       cy="93.651947"
       rx="2.5245647"
       ry="2.2306774" />
    <ellipse
       style="fill:#2c89a0;stroke:#5fbcd3;stroke-width:0.113569"
       id="ellipse9"
       cx="81.602585"
       cy="92.476402"
       rx="2.5245647"
       ry="2.2306774" />
    <rect
       style="fill:#000000;stroke:#5fbcd3;stroke-width:0.264583"
       id="rect9"
       width="0.41997355"
       height="3.7797618"
       x="104.57341"
       y="122.84226" />
    <ellipse
       style="fill:#deaa87;stroke:#917c6f;stroke-width:0.264583"
       id="path9"
       cx="-129.14188"
       cy="70.975525"
       rx="5.8796291"
       ry="4.1997352"
       transform="rotate(-90)" />
    <ellipse
       style="fill:#deaa87;stroke:#917c6f;stroke-width:0.264583"
       id="ellipse10"
       cx="130.61179"
       cy="-135.4247"
       rx="5.8796291"
       ry="4.1997352"
       transform="rotate(90)" />
    <ellipse
       style="fill:#deaa87;stroke:#917c6f;stroke-width:0.264583"
       id="ellipse11"
       cx="87.774467"
       cy="167.35948"
       rx="5.8796291"
       ry="4.1997352" />
    <ellipse
       style="fill:#deaa87;stroke:#917c6f;stroke-width:0.264583"
       id="ellipse12"
       cx="121.37235"
       cy="166.30956"
       rx="5.8796291"
       ry="4.1997352" />
    <g
       id="g24"
       transform="translate(109.82308,17.848876)">
      <path
         id="rect12"
         style="fill:#784421;stroke:#917c6f;stroke-width:0.954;stroke-linecap:round;stroke-linejoin:round;stroke-dasharray:none"
         d="m 23.093164,86.929061 v 49.772159 h -12.80387 v 11.12955 H 41.577307 V 136.70122 H 27.933695 V 86.929061 Z" />
      <rect
         style="fill:url(#pattern24);fill-opacity:1;stroke:#917c6f;stroke-width:0.261;stroke-linejoin:round;stroke-dasharray:none"
         id="rect14"
         width="31.291464"
         height="13.862561"
         x="10.287635"
         y="142.36929" />
    </g>
  </g>
</svg>
